<mxfile host="app.diagrams.net" modified="2023-08-15T08:31:11.079Z" agent="Mozilla/5.0 (Windows NT 10.0; Win64; x64) AppleWebKit/537.36 (KHTML, like Gecko) Chrome/115.0.0.0 Safari/537.36" etag="QJQ17l7WqnXsVMA2t5JQ" version="21.6.8" type="device">
  <diagram name="Page-1" id="mn8YbgrD5ZZ4NY8sSnwC">
    <mxGraphModel dx="834" dy="2346" grid="1" gridSize="10" guides="1" tooltips="1" connect="1" arrows="1" fold="1" page="1" pageScale="1" pageWidth="827" pageHeight="1169" math="0" shadow="0">
      <root>
        <mxCell id="0" />
        <mxCell id="1" parent="0" />
        <mxCell id="4CpsZHchp3Hb_wEKefB9-5" value="&lt;font style=&quot;font-size: 32px;&quot;&gt;Hardware&lt;/font&gt;" style="rounded=1;whiteSpace=wrap;html=1;" vertex="1" parent="1">
          <mxGeometry x="44" y="538" width="480" height="50" as="geometry" />
        </mxCell>
        <mxCell id="4CpsZHchp3Hb_wEKefB9-25" value="" style="group" vertex="1" connectable="0" parent="1">
          <mxGeometry x="9" y="58" width="550" height="440" as="geometry" />
        </mxCell>
        <mxCell id="4CpsZHchp3Hb_wEKefB9-4" value="" style="group" vertex="1" connectable="0" parent="4CpsZHchp3Hb_wEKefB9-25">
          <mxGeometry y="80" width="550" height="360" as="geometry" />
        </mxCell>
        <mxCell id="4CpsZHchp3Hb_wEKefB9-2" value="" style="rounded=1;whiteSpace=wrap;html=1;" vertex="1" parent="4CpsZHchp3Hb_wEKefB9-4">
          <mxGeometry width="550" height="359.99999999999994" as="geometry" />
        </mxCell>
        <mxCell id="4CpsZHchp3Hb_wEKefB9-3" value="&lt;font style=&quot;font-size: 17px;&quot;&gt;Kernel&lt;/font&gt;" style="text;html=1;strokeColor=none;fillColor=none;align=center;verticalAlign=middle;whiteSpace=wrap;rounded=0;" vertex="1" parent="4CpsZHchp3Hb_wEKefB9-4">
          <mxGeometry x="245" y="6.545454545454545" width="60" height="19.636363636363637" as="geometry" />
        </mxCell>
        <mxCell id="4CpsZHchp3Hb_wEKefB9-9" value="&lt;font style=&quot;font-size: 16px;&quot;&gt;System Call Interface&lt;/font&gt;" style="rounded=1;whiteSpace=wrap;html=1;" vertex="1" parent="4CpsZHchp3Hb_wEKefB9-4">
          <mxGeometry x="40" y="29.999090909090906" width="470" height="32.72727272727273" as="geometry" />
        </mxCell>
        <mxCell id="4CpsZHchp3Hb_wEKefB9-10" value="&lt;font style=&quot;font-size: 16px;&quot;&gt;File System&lt;/font&gt;" style="rounded=1;whiteSpace=wrap;html=1;" vertex="1" parent="4CpsZHchp3Hb_wEKefB9-25">
          <mxGeometry x="40" y="200" width="110" height="123" as="geometry" />
        </mxCell>
        <mxCell id="4CpsZHchp3Hb_wEKefB9-14" value="" style="group" vertex="1" connectable="0" parent="4CpsZHchp3Hb_wEKefB9-25">
          <mxGeometry x="200" y="178" width="150" height="155" as="geometry" />
        </mxCell>
        <mxCell id="4CpsZHchp3Hb_wEKefB9-13" value="" style="rounded=1;whiteSpace=wrap;html=1;" vertex="1" parent="4CpsZHchp3Hb_wEKefB9-14">
          <mxGeometry width="150" height="155" as="geometry" />
        </mxCell>
        <mxCell id="4CpsZHchp3Hb_wEKefB9-6" value="&lt;font style=&quot;font-size: 16px;&quot;&gt;Process Management&lt;/font&gt;" style="rounded=1;whiteSpace=wrap;html=1;" vertex="1" parent="4CpsZHchp3Hb_wEKefB9-14">
          <mxGeometry x="15" y="15" width="120" height="60" as="geometry" />
        </mxCell>
        <mxCell id="4CpsZHchp3Hb_wEKefB9-7" value="&lt;font style=&quot;font-size: 16px;&quot;&gt;Memory Management&lt;/font&gt;" style="rounded=1;whiteSpace=wrap;html=1;" vertex="1" parent="4CpsZHchp3Hb_wEKefB9-14">
          <mxGeometry x="15" y="85" width="120" height="60" as="geometry" />
        </mxCell>
        <mxCell id="4CpsZHchp3Hb_wEKefB9-11" value="&lt;font style=&quot;font-size: 16px;&quot;&gt;Networking&lt;/font&gt;" style="rounded=1;whiteSpace=wrap;html=1;" vertex="1" parent="4CpsZHchp3Hb_wEKefB9-25">
          <mxGeometry x="400" y="200" width="110" height="123" as="geometry" />
        </mxCell>
        <mxCell id="4CpsZHchp3Hb_wEKefB9-17" value="" style="shape=flexArrow;endArrow=classic;startArrow=classic;html=1;rounded=0;exitX=1;exitY=0.5;exitDx=0;exitDy=0;entryX=-0.003;entryY=0.539;entryDx=0;entryDy=0;entryPerimeter=0;" edge="1" parent="4CpsZHchp3Hb_wEKefB9-25" source="4CpsZHchp3Hb_wEKefB9-10" target="4CpsZHchp3Hb_wEKefB9-13">
          <mxGeometry width="100" height="100" relative="1" as="geometry">
            <mxPoint x="360" y="351" as="sourcePoint" />
            <mxPoint x="410" y="350" as="targetPoint" />
          </mxGeometry>
        </mxCell>
        <mxCell id="4CpsZHchp3Hb_wEKefB9-16" value="" style="shape=flexArrow;endArrow=classic;startArrow=classic;html=1;rounded=0;entryX=0;entryY=0.5;entryDx=0;entryDy=0;exitX=1.009;exitY=0.539;exitDx=0;exitDy=0;exitPerimeter=0;" edge="1" parent="4CpsZHchp3Hb_wEKefB9-25" source="4CpsZHchp3Hb_wEKefB9-13" target="4CpsZHchp3Hb_wEKefB9-11">
          <mxGeometry width="100" height="100" relative="1" as="geometry">
            <mxPoint x="190" y="200" as="sourcePoint" />
            <mxPoint x="290" y="100" as="targetPoint" />
          </mxGeometry>
        </mxCell>
        <mxCell id="4CpsZHchp3Hb_wEKefB9-22" value="" style="shape=flexArrow;endArrow=classic;startArrow=classic;html=1;rounded=0;entryX=0.255;entryY=0.053;entryDx=0;entryDy=0;exitX=0.25;exitY=1;exitDx=0;exitDy=0;entryPerimeter=0;fillColor=default;" edge="1" parent="4CpsZHchp3Hb_wEKefB9-25" target="4CpsZHchp3Hb_wEKefB9-5">
          <mxGeometry width="100" height="100" relative="1" as="geometry">
            <mxPoint x="157.5" y="410" as="sourcePoint" />
            <mxPoint x="295" y="410" as="targetPoint" />
          </mxGeometry>
        </mxCell>
        <mxCell id="4CpsZHchp3Hb_wEKefB9-30" value="" style="shape=flexArrow;endArrow=classic;startArrow=classic;html=1;rounded=0;exitX=0.5;exitY=0;exitDx=0;exitDy=0;entryX=0.117;entryY=0.995;entryDx=0;entryDy=0;entryPerimeter=0;" edge="1" parent="4CpsZHchp3Hb_wEKefB9-25" source="4CpsZHchp3Hb_wEKefB9-10" target="4CpsZHchp3Hb_wEKefB9-9">
          <mxGeometry width="100" height="100" relative="1" as="geometry">
            <mxPoint x="160" y="272" as="sourcePoint" />
            <mxPoint x="210" y="272" as="targetPoint" />
          </mxGeometry>
        </mxCell>
        <mxCell id="4CpsZHchp3Hb_wEKefB9-31" value="" style="shape=flexArrow;endArrow=classic;startArrow=classic;html=1;rounded=0;entryX=0.5;entryY=0;entryDx=0;entryDy=0;exitX=0.882;exitY=1.005;exitDx=0;exitDy=0;exitPerimeter=0;" edge="1" parent="4CpsZHchp3Hb_wEKefB9-25" source="4CpsZHchp3Hb_wEKefB9-9" target="4CpsZHchp3Hb_wEKefB9-11">
          <mxGeometry width="100" height="100" relative="1" as="geometry">
            <mxPoint x="361" y="272" as="sourcePoint" />
            <mxPoint x="410" y="272" as="targetPoint" />
          </mxGeometry>
        </mxCell>
        <mxCell id="4CpsZHchp3Hb_wEKefB9-20" value="" style="shape=flexArrow;endArrow=classic;startArrow=classic;html=1;rounded=0;exitX=0.5;exitY=1;exitDx=0;exitDy=0;entryX=0.5;entryY=0;entryDx=0;entryDy=0;fillColor=default;" edge="1" parent="1" source="4CpsZHchp3Hb_wEKefB9-13" target="4CpsZHchp3Hb_wEKefB9-5">
          <mxGeometry width="100" height="100" relative="1" as="geometry">
            <mxPoint x="-61" y="74" as="sourcePoint" />
            <mxPoint x="-61" y="128" as="targetPoint" />
          </mxGeometry>
        </mxCell>
        <mxCell id="4CpsZHchp3Hb_wEKefB9-27" value="&lt;font style=&quot;font-size: 16px;&quot;&gt;Device Drivers&lt;/font&gt;" style="rounded=1;whiteSpace=wrap;html=1;" vertex="1" parent="1">
          <mxGeometry x="49" y="438" width="470" height="30" as="geometry" />
        </mxCell>
        <mxCell id="4CpsZHchp3Hb_wEKefB9-28" value="" style="shape=flexArrow;endArrow=classic;startArrow=classic;html=1;rounded=0;exitX=0.75;exitY=1;exitDx=0;exitDy=0;fillColor=default;entryX=0.743;entryY=0.016;entryDx=0;entryDy=0;entryPerimeter=0;" edge="1" parent="1" source="4CpsZHchp3Hb_wEKefB9-27" target="4CpsZHchp3Hb_wEKefB9-5">
          <mxGeometry width="100" height="100" relative="1" as="geometry">
            <mxPoint x="176.5" y="478" as="sourcePoint" />
            <mxPoint x="389" y="528" as="targetPoint" />
          </mxGeometry>
        </mxCell>
        <mxCell id="4CpsZHchp3Hb_wEKefB9-19" value="" style="shape=flexArrow;endArrow=classic;startArrow=classic;html=1;rounded=0;exitX=0.5;exitY=1;exitDx=0;exitDy=0;entryX=0.119;entryY=-0.023;entryDx=0;entryDy=0;entryPerimeter=0;" edge="1" parent="1" source="4CpsZHchp3Hb_wEKefB9-10" target="4CpsZHchp3Hb_wEKefB9-27">
          <mxGeometry width="100" height="100" relative="1" as="geometry">
            <mxPoint x="169" y="389" as="sourcePoint" />
            <mxPoint x="99" y="438" as="targetPoint" />
          </mxGeometry>
        </mxCell>
        <mxCell id="4CpsZHchp3Hb_wEKefB9-21" value="" style="shape=flexArrow;endArrow=classic;startArrow=classic;html=1;rounded=0;exitX=0.5;exitY=1;exitDx=0;exitDy=0;" edge="1" parent="1" source="4CpsZHchp3Hb_wEKefB9-11">
          <mxGeometry width="100" height="100" relative="1" as="geometry">
            <mxPoint x="294" y="414" as="sourcePoint" />
            <mxPoint x="465" y="438" as="targetPoint" />
          </mxGeometry>
        </mxCell>
        <mxCell id="4CpsZHchp3Hb_wEKefB9-41" value="" style="group" vertex="1" connectable="0" parent="1">
          <mxGeometry x="9" y="-52" width="550" height="170" as="geometry" />
        </mxCell>
        <mxCell id="4CpsZHchp3Hb_wEKefB9-12" value="" style="rounded=1;whiteSpace=wrap;html=1;" vertex="1" parent="4CpsZHchp3Hb_wEKefB9-41">
          <mxGeometry y="60" width="550" height="110" as="geometry" />
        </mxCell>
        <mxCell id="4CpsZHchp3Hb_wEKefB9-32" value="User Space" style="text;html=1;strokeColor=none;fillColor=none;align=center;verticalAlign=middle;whiteSpace=wrap;rounded=0;" vertex="1" parent="4CpsZHchp3Hb_wEKefB9-41">
          <mxGeometry x="237" y="60" width="76" height="30" as="geometry" />
        </mxCell>
        <mxCell id="4CpsZHchp3Hb_wEKefB9-34" value="Applications" style="rounded=1;whiteSpace=wrap;html=1;" vertex="1" parent="4CpsZHchp3Hb_wEKefB9-41">
          <mxGeometry x="325" y="100" width="170" height="40" as="geometry" />
        </mxCell>
        <mxCell id="4CpsZHchp3Hb_wEKefB9-33" value="System Services" style="rounded=1;whiteSpace=wrap;html=1;" vertex="1" parent="4CpsZHchp3Hb_wEKefB9-41">
          <mxGeometry x="55" y="100" width="170" height="40" as="geometry" />
        </mxCell>
        <mxCell id="4CpsZHchp3Hb_wEKefB9-42" value="" style="shape=flexArrow;endArrow=classic;startArrow=classic;html=1;rounded=0;entryX=0.5;entryY=1;entryDx=0;entryDy=0;fillColor=default;" edge="1" parent="1" target="4CpsZHchp3Hb_wEKefB9-33">
          <mxGeometry width="100" height="100" relative="1" as="geometry">
            <mxPoint x="149" y="168" as="sourcePoint" />
            <mxPoint x="114" y="211" as="targetPoint" />
          </mxGeometry>
        </mxCell>
        <mxCell id="4CpsZHchp3Hb_wEKefB9-43" value="" style="shape=flexArrow;endArrow=classic;startArrow=classic;html=1;rounded=0;exitX=0.789;exitY=0.013;exitDx=0;exitDy=0;entryX=0.5;entryY=1;entryDx=0;entryDy=0;exitPerimeter=0;fillColor=default;" edge="1" parent="1" source="4CpsZHchp3Hb_wEKefB9-9" target="4CpsZHchp3Hb_wEKefB9-34">
          <mxGeometry width="100" height="100" relative="1" as="geometry">
            <mxPoint x="124" y="278" as="sourcePoint" />
            <mxPoint x="124" y="221" as="targetPoint" />
          </mxGeometry>
        </mxCell>
      </root>
    </mxGraphModel>
  </diagram>
</mxfile>
